<svg width="33" height="32" viewBox="0 0 33 32" fill="none" xmlns="http://www.w3.org/2000/svg">
<path d="M13.6676 19.9998L20.5876 15.9998L13.6676 11.9998V19.9998ZM29.081 9.55984C29.2543 10.1865 29.3743 11.0265 29.4543 12.0932C29.5476 13.1598 29.5876 14.0798 29.5876 14.8798L29.6676 15.9998C29.6676 18.9198 29.4543 21.0665 29.081 22.4398C28.7476 23.6398 27.9743 24.4132 26.7743 24.7465C26.1476 24.9198 25.001 25.0398 23.241 25.1198C21.5076 25.2132 19.921 25.2532 18.4543 25.2532L16.3343 25.3332C10.7476 25.3332 7.26764 25.1198 5.89431 24.7465C4.69431 24.4132 3.92098 23.6398 3.58764 22.4398C3.41431 21.8132 3.29431 20.9732 3.21431 19.9065C3.12098 18.8398 3.08098 17.9198 3.08098 17.1198L3.00098 15.9998C3.00098 13.0798 3.21431 10.9332 3.58764 9.55984C3.92098 8.35984 4.69431 7.5865 5.89431 7.25317C6.52098 7.07984 7.66764 6.95984 9.42764 6.87984C11.161 6.7865 12.7476 6.7465 14.2143 6.7465L16.3343 6.6665C21.921 6.6665 25.401 6.87984 26.7743 7.25317C27.9743 7.5865 28.7476 8.35984 29.081 9.55984Z" fill="black"/>
</svg>
