<svg width="33" height="32" viewBox="0 0 33 32" fill="none" xmlns="http://www.w3.org/2000/svg">
<path d="M25.999 4C26.7063 4 27.3846 4.28095 27.8847 4.78105C28.3848 5.28115 28.6657 5.95942 28.6657 6.66667V25.3333C28.6657 26.0406 28.3848 26.7189 27.8847 27.219C27.3846 27.719 26.7063 28 25.999 28H7.33238C6.62513 28 5.94686 27.719 5.44676 27.219C4.94666 26.7189 4.66571 26.0406 4.66571 25.3333V6.66667C4.66571 5.95942 4.94666 5.28115 5.44676 4.78105C5.94686 4.28095 6.62513 4 7.33238 4H25.999ZM25.3324 24.6667V17.6C25.3324 16.4472 24.8744 15.3416 24.0593 14.5264C23.2441 13.7113 22.1385 13.2533 20.9857 13.2533C19.8524 13.2533 18.5324 13.9467 17.8924 14.9867V13.5067H14.1724V24.6667H17.8924V18.0933C17.8924 17.0667 18.719 16.2267 19.7457 16.2267C20.2408 16.2267 20.7156 16.4233 21.0656 16.7734C21.4157 17.1235 21.6124 17.5983 21.6124 18.0933V24.6667H25.3324ZM9.83904 11.4133C10.4331 11.4133 11.0029 11.1773 11.423 10.7573C11.843 10.3372 12.079 9.76742 12.079 9.17333C12.079 7.93333 11.079 6.92 9.83904 6.92C9.24142 6.92 8.66828 7.1574 8.2457 7.57999C7.82311 8.00257 7.58571 8.57571 7.58571 9.17333C7.58571 10.4133 8.59904 11.4133 9.83904 11.4133ZM11.6924 24.6667V13.5067H7.99904V24.6667H11.6924Z" fill="black"/>
</svg>
