<svg width="49" height="49" viewBox="0 0 49 49" fill="none" xmlns="http://www.w3.org/2000/svg">
<path d="M34.5625 22.75H26.25V14.4375C26.25 14.1969 26.0531 14 25.8125 14H23.1875C22.9469 14 22.75 14.1969 22.75 14.4375V22.75H14.4375C14.1969 22.75 14 22.9469 14 23.1875V25.8125C14 26.0531 14.1969 26.25 14.4375 26.25H22.75V34.5625C22.75 34.8031 22.9469 35 23.1875 35H25.8125C26.0531 35 26.25 34.8031 26.25 34.5625V26.25H34.5625C34.8031 26.25 35 26.0531 35 25.8125V23.1875C35 22.9469 34.8031 22.75 34.5625 22.75Z" fill="black"/>
<path d="M24.5 0C10.9703 0 0 10.9703 0 24.5C0 38.0297 10.9703 49 24.5 49C38.0297 49 49 38.0297 49 24.5C49 10.9703 38.0297 0 24.5 0ZM24.5 44.8438C13.2672 44.8438 4.15625 35.7328 4.15625 24.5C4.15625 13.2672 13.2672 4.15625 24.5 4.15625C35.7328 4.15625 44.8438 13.2672 44.8438 24.5C44.8438 35.7328 35.7328 44.8438 24.5 44.8438Z" fill="black"/>
</svg>
