<svg width="33" height="32" viewBox="0 0 33 32" fill="none" xmlns="http://www.w3.org/2000/svg">
<path d="M23.4543 7.27984C23.1379 7.27984 22.8285 7.37368 22.5654 7.54949C22.3023 7.7253 22.0972 7.97518 21.9761 8.26754C21.855 8.55991 21.8233 8.88161 21.8851 9.19198C21.9468 9.50235 22.0992 9.78744 22.3229 10.0112C22.5467 10.235 22.8318 10.3874 23.1422 10.4491C23.4525 10.5108 23.7742 10.4791 24.0666 10.358C24.359 10.2369 24.6088 10.0319 24.7847 9.76875C24.9605 9.50563 25.0543 9.19629 25.0543 8.87984C25.0543 8.45549 24.8857 8.04852 24.5857 7.74847C24.2856 7.44841 23.8787 7.27984 23.4543 7.27984ZM29.5876 10.5065C29.5617 9.40023 29.3545 8.30571 28.9743 7.2665C28.6353 6.37735 28.1076 5.57221 27.4276 4.9065C26.7674 4.22307 25.9604 3.69874 25.0676 3.37317C24.0312 2.98138 22.9354 2.76945 21.8276 2.7465C20.4143 2.6665 19.961 2.6665 16.3343 2.6665C12.7076 2.6665 12.2543 2.6665 10.841 2.7465C9.73318 2.76945 8.63743 2.98138 7.60098 3.37317C6.70988 3.70204 5.90355 4.22592 5.24098 4.9065C4.55754 5.56674 4.03321 6.37376 3.70764 7.2665C3.31586 8.30296 3.10392 9.39871 3.08098 10.5065C3.00098 11.9198 3.00098 12.3732 3.00098 15.9998C3.00098 19.6265 3.00098 20.0798 3.08098 21.4932C3.10392 22.601 3.31586 23.6967 3.70764 24.7332C4.03321 25.6259 4.55754 26.4329 5.24098 27.0932C5.90355 27.7738 6.70988 28.2976 7.60098 28.6265C8.63743 29.0183 9.73318 29.2302 10.841 29.2532C12.2543 29.3332 12.7076 29.3332 16.3343 29.3332C19.961 29.3332 20.4143 29.3332 21.8276 29.2532C22.9354 29.2302 24.0312 29.0183 25.0676 28.6265C25.9604 28.3009 26.7674 27.7766 27.4276 27.0932C28.1106 26.4299 28.6388 25.6241 28.9743 24.7332C29.3545 23.694 29.5617 22.5994 29.5876 21.4932C29.5876 20.0798 29.6676 19.6265 29.6676 15.9998C29.6676 12.3732 29.6676 11.9198 29.5876 10.5065ZM27.1876 21.3332C27.1779 22.1795 27.0246 23.0181 26.7343 23.8132C26.5214 24.3934 26.1795 24.9177 25.7343 25.3465C25.3018 25.7872 24.7786 26.1284 24.201 26.3465C23.4059 26.6368 22.5673 26.7901 21.721 26.7998C20.3876 26.8665 19.8943 26.8798 16.3876 26.8798C12.881 26.8798 12.3876 26.8798 11.0543 26.7998C10.1755 26.8163 9.30044 26.681 8.46764 26.3998C7.91535 26.1706 7.41612 25.8302 7.00098 25.3998C6.55843 24.9715 6.22077 24.4468 6.01431 23.8665C5.68878 23.06 5.50823 22.2024 5.48098 21.3332C5.48098 19.9998 5.40098 19.5065 5.40098 15.9998C5.40098 12.4932 5.40098 11.9998 5.48098 10.6665C5.48695 9.80124 5.64491 8.94376 5.94764 8.13317C6.18237 7.57038 6.54266 7.06871 7.00098 6.6665C7.40606 6.20806 7.90669 5.84396 8.46764 5.59984C9.28038 5.30656 10.137 5.15328 11.001 5.1465C12.3343 5.1465 12.8276 5.0665 16.3343 5.0665C19.841 5.0665 20.3343 5.0665 21.6676 5.1465C22.514 5.15621 23.3526 5.3095 24.1476 5.59984C24.7535 5.82471 25.2974 6.1903 25.7343 6.6665C26.1712 7.07607 26.5127 7.57681 26.7343 8.13317C27.0306 8.94508 27.184 9.80221 27.1876 10.6665C27.2543 11.9998 27.2676 12.4932 27.2676 15.9998C27.2676 19.5065 27.2543 19.9998 27.1876 21.3332ZM16.3343 9.15984C14.9821 9.16247 13.6609 9.56587 12.5378 10.3191C11.4148 11.0723 10.5401 12.1414 10.0245 13.3915C9.50883 14.6416 9.37527 16.0165 9.6407 17.3424C9.90613 18.6684 10.5586 19.8859 11.5157 20.8411C12.4729 21.7964 13.6917 22.4465 15.0181 22.7094C16.3446 22.9722 17.7192 22.836 18.9683 22.3179C20.2173 21.7998 21.2848 20.9231 22.0358 19.7985C22.7868 18.674 23.1876 17.3521 23.1876 15.9998C23.1894 15.1 23.0132 14.2086 22.6693 13.3771C22.3253 12.5456 21.8204 11.7902 21.1835 11.1546C20.5466 10.5189 19.7902 10.0154 18.958 9.67308C18.1258 9.33074 17.2342 9.15632 16.3343 9.15984ZM16.3343 20.4398C15.4562 20.4398 14.5977 20.1794 13.8676 19.6916C13.1374 19.2037 12.5683 18.5103 12.2323 17.699C11.8962 16.8876 11.8083 15.9949 11.9796 15.1336C12.1509 14.2724 12.5738 13.4812 13.1948 12.8603C13.8157 12.2393 14.6068 11.8165 15.4681 11.6452C16.3294 11.4738 17.2221 11.5618 18.0334 11.8978C18.8447 12.2339 19.5382 12.8029 20.026 13.5331C20.5139 14.2633 20.7743 15.1217 20.7743 15.9998C20.7743 16.5829 20.6595 17.1603 20.4363 17.699C20.2132 18.2376 19.8862 18.7271 19.4739 19.1394C19.0616 19.5517 18.5721 19.8787 18.0334 20.1019C17.4947 20.325 16.9174 20.4398 16.3343 20.4398Z" fill="black"/>
</svg>
